<?xml version="1.0" standalone="no"?>
<!DOCTYPE svg PUBLIC "-//W3C//DTD SVG 20010904//EN"
 "http://www.w3.org/TR/2001/REC-SVG-20010904/DTD/svg10.dtd">
<svg version="1.0" xmlns="http://www.w3.org/2000/svg"
 width="998.000000pt" height="848.000000pt" viewBox="0 0 998.000000 848.000000"
 preserveAspectRatio="xMidYMid meet">

<g transform="translate(0.000000,848.000000) scale(0.100000,-0.100000)"
fill="#000000" stroke="none">
<path d="M3630 7603 c-17 -22 -20 -36 -16 -77 3 -28 8 -116 11 -196 24 -652
46 -1155 54 -1208 8 -55 17 -73 68 -139 32 -42 135 -178 228 -302 l170 -226
275 -182 c151 -101 282 -183 292 -183 9 0 225 154 480 343 254 188 477 352
494 365 l31 22 67 -90 c36 -50 66 -94 65 -98 0 -4 -61 -63 -135 -132 -74 -69
-134 -132 -133 -140 0 -8 37 -89 82 -180 64 -127 87 -166 104 -168 19 -3 206
65 493 180 97 38 132 58 158 86 40 44 132 179 132 194 0 7 -25 9 -75 5 -63 -6
-121 -24 -339 -107 -145 -55 -268 -100 -274 -100 -5 0 -13 12 -17 28 -6 25 4
37 135 162 81 78 141 143 140 153 0 10 -56 94 -125 188 -69 93 -125 172 -125
175 0 3 59 106 130 229 72 123 130 230 130 237 0 15 -240 198 -259 198 -19 0
-151 -114 -151 -131 0 -9 31 -38 70 -65 38 -27 70 -51 70 -54 0 -3 -45 -81
-99 -175 -90 -157 -103 -174 -162 -218 -412 -309 -893 -656 -902 -650 -7 3
-100 64 -208 135 l-197 129 -128 171 c-211 281 -246 329 -243 332 2 1 375 148
829 326 l825 323 445 249 c245 138 447 251 448 253 7 7 -121 165 -133 165 -3
0 -112 -60 -243 -134 -130 -73 -251 -140 -269 -150 l-32 -16 15 47 c21 68 28
110 18 116 -12 7 -201 -36 -214 -49 -6 -6 -28 -68 -50 -139 -21 -70 -41 -129
-43 -131 -2 -3 -52 -24 -111 -47 l-106 -43 -303 43 c-166 23 -321 42 -344 43
-40 0 -50 -7 -179 -120 -75 -66 -140 -120 -143 -120 -3 1 -36 44 -72 98 -394
584 -515 760 -532 780 -28 31 -70 29 -97 -5z m610 -1132 c0 -8 -350 -144 -356
-139 -4 5 -34 599 -34 682 0 38 10 25 195 -249 107 -159 195 -291 195 -294z
m580 266 l75 -12 -209 -83 c-115 -45 -210 -81 -211 -80 -2 2 44 45 102 96 118
102 110 100 243 79z"/>
<path d="M5375 6509 c-50 -41 -139 -102 -200 -136 -105 -60 -108 -63 -72 -63
77 0 312 32 325 44 12 12 46 199 39 219 -1 5 -43 -24 -92 -64z"/>
<path d="M2040 3921 c0 -6 -65 -376 -144 -824 l-144 -814 -41 -71 c-22 -39
-41 -76 -41 -82 0 -8 45 -10 161 -8 l161 3 43 75 43 75 347 3 348 2 -6 -37
c-4 -21 -9 -57 -13 -80 l-6 -41 165 -1 165 -2 14 78 14 78 586 3 c546 2 586 3
593 20 3 9 116 307 250 662 134 355 247 653 250 663 7 16 -5 17 -157 17 l-164
0 -225 -595 -224 -595 -438 0 -439 0 7 53 c4 28 9 55 12 60 2 4 136 7 297 7
l293 0 12 69 c6 39 11 77 11 85 0 14 -34 16 -290 16 -261 0 -290 2 -290 16 0
16 84 504 95 552 l5 22 -164 0 -164 0 -10 -47 c-6 -27 -29 -159 -53 -295 l-43
-248 -139 0 c-127 0 -138 1 -134 18 3 9 8 34 12 55 l6 37 72 0 73 0 12 70 c7
39 12 77 12 85 0 13 -34 15 -230 15 -177 0 -230 -3 -230 -12 0 -7 -18 -109
-38 -225 l-38 -213 294 0 295 0 -7 -52 c-4 -28 -9 -55 -12 -60 -5 -8 -677 -12
-686 -3 -2 3 33 215 79 472 45 258 83 474 83 480 0 10 175 13 823 15 l822 3
42 235 c23 129 42 243 43 253 0 16 -53 17 -985 17 -614 0 -985 -4 -985 -9z
m1609 -173 c0 -7 -6 -44 -12 -83 l-12 -70 -657 -3 -656 -2 14 72 c8 40 14 79
14 86 0 9 138 12 655 12 518 0 655 -3 654 -12z"/>
<path d="M4991 3118 c-79 -447 -145 -816 -148 -820 -2 -5 -38 -8 -78 -8 -84 0
-75 9 -94 -100 -5 -30 -7 -58 -4 -62 6 -10 454 -10 470 0 11 7 323 1734 323
1785 0 15 -16 17 -163 17 l-163 0 -143 -812z"/>
<path d="M7159 3843 c-40 -49 -79 -96 -87 -105 -14 -17 -4 -18 194 -18 l210 0
82 100 c45 55 82 102 82 105 0 3 -92 5 -205 5 l-204 0 -72 -87z"/>
<path d="M5720 3518 c0 -68 7 -368 15 -668 8 -300 15 -551 15 -557 0 -10 40
-13 165 -13 l165 0 0 38 c0 20 -7 280 -15 577 -8 297 -15 548 -15 558 0 16 58
17 1075 17 l1075 0 -5 -22 c-6 -27 -85 -475 -85 -483 0 -3 -290 -5 -645 -5
l-645 0 5 23 c9 40 65 362 65 375 0 9 -40 12 -165 12 -91 0 -165 -3 -165 -7 0
-9 -199 -1141 -205 -1170 l-5 -23 975 0 975 0 5 23 c2 12 59 330 125 707 66
377 123 697 126 713 l6 27 -1421 0 -1421 0 0 -122z m2353 -735 c3 -7 -14 -109
-68 -410 l-6 -33 -645 0 c-610 0 -645 1 -640 18 5 16 76 416 76 427 0 8 1278
6 1283 -2z"/>
<path d="M2356 3263 c-3 -16 -8 -46 -12 -68 -3 -22 -8 -48 -11 -58 -4 -16 10
-17 229 -15 l233 3 12 70 c6 39 12 76 12 83 1 9 -51 12 -228 12 l-229 0 -6
-27z"/>
<path d="M3400 3223 c-6 -38 -14 -76 -17 -86 -4 -16 10 -17 228 -15 l233 3 12
65 c22 111 46 100 -215 100 l-229 0 -12 -67z"/>
<path d="M3349 2935 l-15 -85 231 0 232 0 12 69 c6 39 11 77 11 85 0 14 -28
16 -228 16 l-229 0 -14 -85z"/>
<path d="M3030 1403 c-89 -225 -164 -414 -167 -420 -4 -10 11 -13 54 -13 l60
0 34 88 34 87 83 3 82 3 0 -91 0 -90 60 0 60 0 0 47 c0 62 -28 626 -36 721
l-6 72 -47 0 -48 0 -163 -407z m172 -10 l4 -133 -59 0 c-43 0 -58 3 -54 13 2
6 26 75 53 151 27 77 50 131 51 120 1 -10 4 -79 5 -151z"/>
<path d="M3530 1802 c0 -4 -27 -159 -59 -343 -63 -358 -64 -378 -22 -437 24
-35 86 -62 139 -62 82 0 186 77 212 156 6 17 37 178 69 358 42 241 54 329 46
333 -7 2 -34 3 -61 1 l-49 -3 -42 -240 c-81 -459 -74 -427 -104 -457 -48 -48
-119 -28 -119 33 0 13 25 163 55 334 30 170 55 315 55 322 0 9 -18 13 -60 13
-33 0 -60 -3 -60 -8z"/>
<path d="M3995 1800 c-3 -5 -9 -32 -12 -60 l-6 -50 67 0 c46 0 66 -4 66 -12 0
-7 -27 -166 -60 -353 -33 -187 -60 -343 -60 -347 0 -5 27 -8 60 -8 33 0 60 3
60 8 1 4 29 165 63 357 l62 350 72 3 72 3 9 52 c4 29 7 55 5 60 -6 11 -391 9
-398 -3z"/>
<path d="M4544 1786 c-54 -25 -108 -82 -124 -131 -17 -55 -90 -489 -90 -538 0
-97 62 -152 170 -152 72 1 114 18 168 69 19 17 40 44 48 59 17 31 104 509 104
566 0 122 -144 189 -276 127z m136 -116 c11 -11 20 -25 20 -30 0 -27 -83 -479
-92 -503 -12 -31 -54 -57 -93 -57 -31 0 -65 32 -65 63 0 12 20 130 44 261 40
222 45 241 70 263 34 29 88 31 116 3z"/>
<path d="M5145 1789 c-3 -13 -34 -190 -70 -394 -36 -203 -67 -382 -71 -397
l-6 -28 61 0 c34 0 61 1 61 3 1 1 15 81 33 177 l32 175 29 3 c16 2 32 0 37 -5
5 -5 18 -76 29 -159 29 -215 20 -194 94 -194 l63 0 -32 189 -32 190 44 31 c63
44 96 118 101 230 6 156 -35 191 -239 198 l-128 5 -6 -24z m233 -115 c27 -19
30 -75 7 -151 -20 -68 -41 -84 -118 -90 l-65 -6 19 109 c30 169 22 154 82 154
31 0 62 -6 75 -16z"/>
<path d="M5666 1783 c-3 -16 -35 -197 -71 -403 -36 -206 -67 -383 -69 -392 -4
-16 4 -18 58 -18 l61 0 24 138 c12 75 27 158 33 185 l10 47 74 0 c41 0 74 -2
74 -5 0 -3 -13 -80 -30 -172 -16 -91 -30 -172 -30 -179 0 -10 16 -14 60 -14
33 0 60 3 60 7 0 3 32 185 70 404 39 218 70 404 70 413 0 13 -11 16 -54 16
-30 0 -57 -3 -60 -8 -2 -4 -16 -75 -30 -157 -15 -83 -29 -160 -31 -172 -5 -21
-11 -23 -80 -23 -41 0 -75 2 -75 5 0 3 14 80 30 172 17 91 30 170 30 174 0 5
-27 9 -59 9 -57 0 -60 -1 -65 -27z"/>
<path d="M6196 1798 c-3 -7 -34 -182 -70 -390 -37 -207 -69 -390 -72 -407 l-6
-31 61 0 c55 0 61 2 66 23 6 29 132 755 137 787 3 24 0 25 -55 28 -40 2 -58
-1 -61 -10z"/>
<path d="M6445 1798 c-5 -14 -145 -805 -145 -819 0 -5 27 -9 59 -9 l59 0 17
93 c41 234 73 402 75 397 1 -3 23 -113 49 -245 l47 -240 59 0 59 0 67 380 c37
209 70 397 73 418 l6 37 -60 0 c-54 0 -60 -2 -65 -22 -2 -13 -21 -117 -40
-233 -20 -115 -39 -218 -43 -228 -5 -12 -24 68 -51 215 -23 128 -45 241 -47
251 -4 13 -16 17 -60 17 -35 0 -56 -5 -59 -12z"/>
<path d="M7116 1800 c-47 -15 -106 -61 -132 -106 -19 -32 -35 -99 -69 -294
-49 -276 -52 -307 -30 -349 68 -133 294 -111 368 36 17 34 37 119 66 283 47
268 50 320 21 368 -36 59 -139 87 -224 62z m106 -127 c10 -9 18 -28 18 -42 -1
-14 -20 -134 -44 -265 -40 -223 -45 -241 -70 -263 -34 -29 -88 -31 -116 -3
-11 11 -20 25 -20 30 0 12 77 452 85 488 3 13 17 35 30 48 29 29 89 33 117 7z"/>
</g>
</svg>
